<mxfile host="Electron" agent="Mozilla/5.0 (Windows NT 10.0; Win64; x64) AppleWebKit/537.36 (KHTML, like Gecko) draw.io/24.7.17 Chrome/128.0.6613.36 Electron/32.0.1 Safari/537.36" version="24.7.17">
  <diagram name="Page-1" id="ao4dLldWJanqAYZZhxae">
    <mxGraphModel dx="2250" dy="665" grid="1" gridSize="10" guides="1" tooltips="1" connect="1" arrows="1" fold="1" page="1" pageScale="1" pageWidth="850" pageHeight="1100" math="0" shadow="0">
      <root>
        <mxCell id="0" />
        <mxCell id="1" parent="0" />
        <mxCell id="eCJBRdZD5X7bZr1IqzaF-1" value="USER" style="swimlane;whiteSpace=wrap;html=1;movable=1;resizable=1;rotatable=1;deletable=1;editable=1;locked=0;connectable=1;" parent="1" vertex="1">
          <mxGeometry x="-200" y="5" width="200" height="285" as="geometry" />
        </mxCell>
        <mxCell id="eCJBRdZD5X7bZr1IqzaF-2" value="&lt;b&gt;+ID: INT&lt;/b&gt;" style="text;html=1;align=left;verticalAlign=middle;resizable=1;points=[];autosize=1;strokeColor=none;fillColor=none;movable=1;rotatable=1;deletable=1;editable=1;locked=0;connectable=1;" parent="eCJBRdZD5X7bZr1IqzaF-1" vertex="1">
          <mxGeometry x="10" y="30" width="70" height="30" as="geometry" />
        </mxCell>
        <mxCell id="eCJBRdZD5X7bZr1IqzaF-4" value="&lt;b&gt;+FNAME: STRING&lt;/b&gt;" style="text;html=1;align=left;verticalAlign=middle;resizable=1;points=[];autosize=1;strokeColor=none;fillColor=none;movable=1;rotatable=1;deletable=1;editable=1;locked=0;connectable=1;" parent="eCJBRdZD5X7bZr1IqzaF-1" vertex="1">
          <mxGeometry x="10" y="60" width="130" height="30" as="geometry" />
        </mxCell>
        <mxCell id="eCJBRdZD5X7bZr1IqzaF-5" value="&lt;b&gt;+LNAME: STRING&lt;/b&gt;" style="text;html=1;align=left;verticalAlign=middle;resizable=1;points=[];autosize=1;strokeColor=none;fillColor=none;movable=1;rotatable=1;deletable=1;editable=1;locked=0;connectable=1;" parent="eCJBRdZD5X7bZr1IqzaF-1" vertex="1">
          <mxGeometry x="10" y="90" width="130" height="30" as="geometry" />
        </mxCell>
        <mxCell id="eCJBRdZD5X7bZr1IqzaF-6" value="&lt;b&gt;+MIDDLE_INITIAL: STRING&lt;/b&gt;" style="text;html=1;align=left;verticalAlign=middle;resizable=1;points=[];autosize=1;strokeColor=none;fillColor=none;movable=1;rotatable=1;deletable=1;editable=1;locked=0;connectable=1;" parent="eCJBRdZD5X7bZr1IqzaF-1" vertex="1">
          <mxGeometry x="10" y="120" width="180" height="30" as="geometry" />
        </mxCell>
        <mxCell id="0SNg71kg08uve1JwIEZl-17" value="&lt;b&gt;+EMAIL: STRING&lt;/b&gt;" style="text;html=1;align=left;verticalAlign=middle;resizable=1;points=[];autosize=1;strokeColor=none;fillColor=none;movable=1;rotatable=1;deletable=1;editable=1;locked=0;connectable=1;" parent="eCJBRdZD5X7bZr1IqzaF-1" vertex="1">
          <mxGeometry x="10" y="150" width="120" height="30" as="geometry" />
        </mxCell>
        <mxCell id="0SNg71kg08uve1JwIEZl-18" value="&lt;b&gt;+PASSWORD: STRING&lt;/b&gt;" style="text;html=1;align=left;verticalAlign=middle;resizable=1;points=[];autosize=1;strokeColor=none;fillColor=none;movable=1;rotatable=1;deletable=1;editable=1;locked=0;connectable=1;" parent="eCJBRdZD5X7bZr1IqzaF-1" vertex="1">
          <mxGeometry x="10" y="180" width="150" height="30" as="geometry" />
        </mxCell>
        <mxCell id="U2bct4zOQn-88Gh71mYZ-1" value="FACT_WASTE_COLLECTION" style="swimlane;whiteSpace=wrap;html=1;movable=1;resizable=1;rotatable=1;deletable=1;editable=1;locked=0;connectable=1;" parent="1" vertex="1">
          <mxGeometry x="140" y="340" width="240" height="300" as="geometry" />
        </mxCell>
        <mxCell id="U2bct4zOQn-88Gh71mYZ-2" value="&lt;b&gt;+ID: INT&lt;/b&gt;" style="text;html=1;align=left;verticalAlign=middle;resizable=1;points=[];autosize=1;strokeColor=none;fillColor=none;movable=1;rotatable=1;deletable=1;editable=1;locked=0;connectable=1;" parent="U2bct4zOQn-88Gh71mYZ-1" vertex="1">
          <mxGeometry x="10" y="40" width="70" height="30" as="geometry" />
        </mxCell>
        <mxCell id="U2bct4zOQn-88Gh71mYZ-3" value="&lt;b&gt;+DIM_LOCATION_ID: INT&lt;/b&gt;" style="text;html=1;align=left;verticalAlign=middle;resizable=1;points=[];autosize=1;strokeColor=none;fillColor=none;movable=1;rotatable=1;deletable=1;editable=1;locked=0;connectable=1;" parent="U2bct4zOQn-88Gh71mYZ-1" vertex="1">
          <mxGeometry x="10" y="120" width="170" height="30" as="geometry" />
        </mxCell>
        <mxCell id="U2bct4zOQn-88Gh71mYZ-5" value="&lt;b&gt;+AMOUNT_COLLECTED: INT&lt;/b&gt;" style="text;html=1;align=left;verticalAlign=middle;resizable=1;points=[];autosize=1;strokeColor=none;fillColor=none;movable=1;rotatable=1;deletable=1;editable=1;locked=0;connectable=1;" parent="U2bct4zOQn-88Gh71mYZ-1" vertex="1">
          <mxGeometry x="10" y="195" width="190" height="30" as="geometry" />
        </mxCell>
        <mxCell id="U2bct4zOQn-88Gh71mYZ-6" value="&lt;div style=&quot;text-align: justify;&quot;&gt;&lt;b&gt;+EST_WEIGHT: DECIMAL&lt;/b&gt;&lt;/div&gt;" style="text;html=1;align=left;verticalAlign=middle;resizable=1;points=[];autosize=1;strokeColor=none;fillColor=none;movable=1;rotatable=1;deletable=1;editable=1;locked=0;connectable=1;" parent="U2bct4zOQn-88Gh71mYZ-1" vertex="1">
          <mxGeometry x="10" y="230" width="170" height="30" as="geometry" />
        </mxCell>
        <mxCell id="0SNg71kg08uve1JwIEZl-16" value="&lt;b&gt;+USER_ID: INT&lt;/b&gt;" style="text;html=1;align=left;verticalAlign=middle;resizable=1;points=[];autosize=1;strokeColor=none;fillColor=none;movable=1;rotatable=1;deletable=1;editable=1;locked=0;connectable=1;" parent="U2bct4zOQn-88Gh71mYZ-1" vertex="1">
          <mxGeometry x="10" y="80" width="110" height="30" as="geometry" />
        </mxCell>
        <mxCell id="0SNg71kg08uve1JwIEZl-38" value="&lt;b&gt;+DIM_WASTE_ID: INT&lt;/b&gt;" style="text;html=1;align=left;verticalAlign=middle;resizable=1;points=[];autosize=1;strokeColor=none;fillColor=none;movable=1;rotatable=1;deletable=1;editable=1;locked=0;connectable=1;" parent="U2bct4zOQn-88Gh71mYZ-1" vertex="1">
          <mxGeometry x="10" y="160" width="150" height="30" as="geometry" />
        </mxCell>
        <mxCell id="VtmYOwfdl8-CWmyLHI4w-1" value="&lt;div style=&quot;text-align: justify;&quot;&gt;&lt;b style=&quot;background-color: initial;&quot;&gt;+COLLECTION_DATE: DATE&lt;/b&gt;&lt;/div&gt;" style="text;html=1;align=left;verticalAlign=middle;resizable=1;points=[];autosize=1;strokeColor=none;fillColor=none;movable=1;rotatable=1;deletable=1;editable=1;locked=0;connectable=1;" vertex="1" parent="U2bct4zOQn-88Gh71mYZ-1">
          <mxGeometry x="10" y="260" width="170" height="30" as="geometry" />
        </mxCell>
        <mxCell id="U2bct4zOQn-88Gh71mYZ-14" value="DIM_WASTE" style="swimlane;whiteSpace=wrap;html=1;movable=1;resizable=1;rotatable=1;deletable=1;editable=1;locked=0;connectable=1;" parent="1" vertex="1">
          <mxGeometry x="160" y="790" width="200" height="150" as="geometry" />
        </mxCell>
        <mxCell id="U2bct4zOQn-88Gh71mYZ-15" value="&lt;b&gt;+ID: INT&lt;/b&gt;" style="text;html=1;align=left;verticalAlign=middle;resizable=1;points=[];autosize=1;strokeColor=none;fillColor=none;movable=1;rotatable=1;deletable=1;editable=1;locked=0;connectable=1;" parent="U2bct4zOQn-88Gh71mYZ-14" vertex="1">
          <mxGeometry x="10" y="30" width="70" height="30" as="geometry" />
        </mxCell>
        <mxCell id="U2bct4zOQn-88Gh71mYZ-17" value="&lt;b&gt;+WASTE_NAME: STRING&lt;/b&gt;" style="text;html=1;align=left;verticalAlign=middle;resizable=1;points=[];autosize=1;strokeColor=none;fillColor=none;movable=1;rotatable=1;deletable=1;editable=1;locked=0;connectable=1;" parent="U2bct4zOQn-88Gh71mYZ-14" vertex="1">
          <mxGeometry x="10" y="62.710000000000036" width="170" height="30" as="geometry" />
        </mxCell>
        <mxCell id="0SNg71kg08uve1JwIEZl-36" value="&lt;b&gt;+CATEGORY_NAME: ENUM&lt;/b&gt;" style="text;html=1;align=left;verticalAlign=middle;resizable=1;points=[];autosize=1;strokeColor=none;fillColor=none;movable=1;rotatable=1;deletable=1;editable=1;locked=0;connectable=1;" parent="U2bct4zOQn-88Gh71mYZ-14" vertex="1">
          <mxGeometry x="10" y="92.71000000000004" width="180" height="30" as="geometry" />
        </mxCell>
        <mxCell id="0SNg71kg08uve1JwIEZl-2" value="" style="endArrow=none;html=1;rounded=0;entryX=0.5;entryY=1;entryDx=0;entryDy=0;exitX=0.5;exitY=0;exitDx=0;exitDy=0;" parent="1" source="U2bct4zOQn-88Gh71mYZ-14" target="U2bct4zOQn-88Gh71mYZ-1" edge="1">
          <mxGeometry width="50" height="50" relative="1" as="geometry">
            <mxPoint x="260" y="730" as="sourcePoint" />
            <mxPoint x="250.00000000000045" y="610" as="targetPoint" />
          </mxGeometry>
        </mxCell>
        <mxCell id="0SNg71kg08uve1JwIEZl-3" value="" style="endArrow=none;html=1;rounded=0;exitX=1;exitY=1;exitDx=0;exitDy=0;entryX=0;entryY=0;entryDx=0;entryDy=0;" parent="1" source="eCJBRdZD5X7bZr1IqzaF-1" target="U2bct4zOQn-88Gh71mYZ-1" edge="1">
          <mxGeometry width="50" height="50" relative="1" as="geometry">
            <mxPoint y="320" as="sourcePoint" />
            <mxPoint x="140" y="270" as="targetPoint" />
          </mxGeometry>
        </mxCell>
        <mxCell id="0SNg71kg08uve1JwIEZl-6" value="&lt;span style=&quot;font-size: 18px;&quot;&gt;&lt;b&gt;M&lt;/b&gt;&lt;/span&gt;" style="text;html=1;align=center;verticalAlign=middle;resizable=0;points=[];autosize=1;strokeColor=none;fillColor=none;" parent="1" vertex="1">
          <mxGeometry y="260" width="40" height="40" as="geometry" />
        </mxCell>
        <mxCell id="0SNg71kg08uve1JwIEZl-7" value="&lt;span style=&quot;font-size: 18px;&quot;&gt;&lt;b&gt;M&lt;/b&gt;&lt;/span&gt;" style="text;html=1;align=center;verticalAlign=middle;resizable=0;points=[];autosize=1;strokeColor=none;fillColor=none;" parent="1" vertex="1">
          <mxGeometry x="260" y="640" width="40" height="40" as="geometry" />
        </mxCell>
        <mxCell id="0SNg71kg08uve1JwIEZl-8" value="&lt;font style=&quot;font-size: 18px;&quot;&gt;&lt;b style=&quot;&quot;&gt;1&lt;/b&gt;&lt;/font&gt;" style="text;html=1;align=center;verticalAlign=middle;resizable=0;points=[];autosize=1;strokeColor=none;fillColor=none;" parent="1" vertex="1">
          <mxGeometry x="265" y="750" width="30" height="40" as="geometry" />
        </mxCell>
        <mxCell id="0SNg71kg08uve1JwIEZl-9" value="&lt;font style=&quot;font-size: 18px;&quot;&gt;&lt;b style=&quot;&quot;&gt;1&lt;/b&gt;&lt;/font&gt;" style="text;html=1;align=center;verticalAlign=middle;resizable=0;points=[];autosize=1;strokeColor=none;fillColor=none;" parent="1" vertex="1">
          <mxGeometry x="520" y="260" width="30" height="40" as="geometry" />
        </mxCell>
        <mxCell id="0SNg71kg08uve1JwIEZl-10" value="&lt;span style=&quot;font-size: 18px;&quot;&gt;&lt;b&gt;M&lt;/b&gt;&lt;/span&gt;" style="text;html=1;align=center;verticalAlign=middle;resizable=0;points=[];autosize=1;strokeColor=none;fillColor=none;" parent="1" vertex="1">
          <mxGeometry x="370" y="300" width="40" height="40" as="geometry" />
        </mxCell>
        <mxCell id="0SNg71kg08uve1JwIEZl-26" value="" style="endArrow=none;html=1;rounded=0;exitX=0;exitY=1;exitDx=0;exitDy=0;entryX=1;entryY=0;entryDx=0;entryDy=0;" parent="1" target="U2bct4zOQn-88Gh71mYZ-1" edge="1">
          <mxGeometry width="50" height="50" relative="1" as="geometry">
            <mxPoint x="550.0000000000005" y="300" as="sourcePoint" />
            <mxPoint x="380" y="340" as="targetPoint" />
          </mxGeometry>
        </mxCell>
        <mxCell id="0SNg71kg08uve1JwIEZl-29" value="DIM_LOCATION" style="swimlane;whiteSpace=wrap;html=1;movable=1;resizable=1;rotatable=1;deletable=1;editable=1;locked=0;connectable=1;" parent="1" vertex="1">
          <mxGeometry x="550" y="5" width="200" height="285" as="geometry" />
        </mxCell>
        <mxCell id="0SNg71kg08uve1JwIEZl-30" value="&lt;b&gt;+ID: INT&lt;/b&gt;" style="text;html=1;align=left;verticalAlign=middle;resizable=1;points=[];autosize=1;strokeColor=none;fillColor=none;movable=1;rotatable=1;deletable=1;editable=1;locked=0;connectable=1;" parent="0SNg71kg08uve1JwIEZl-29" vertex="1">
          <mxGeometry x="10" y="30" width="70" height="30" as="geometry" />
        </mxCell>
        <mxCell id="0SNg71kg08uve1JwIEZl-31" value="&lt;b&gt;+PUROK: ENUM&lt;/b&gt;" style="text;html=1;align=left;verticalAlign=middle;resizable=1;points=[];autosize=1;strokeColor=none;fillColor=none;movable=1;rotatable=1;deletable=1;editable=1;locked=0;connectable=1;" parent="0SNg71kg08uve1JwIEZl-29" vertex="1">
          <mxGeometry x="10" y="125.42000000000002" width="120" height="30" as="geometry" />
        </mxCell>
        <mxCell id="0SNg71kg08uve1JwIEZl-32" value="&lt;b&gt;+CITY: STRING&lt;/b&gt;" style="text;html=1;align=left;verticalAlign=middle;resizable=1;points=[];autosize=1;strokeColor=none;fillColor=none;movable=1;rotatable=1;deletable=1;editable=1;locked=0;connectable=1;" parent="0SNg71kg08uve1JwIEZl-29" vertex="1">
          <mxGeometry x="10" y="62.710000000000036" width="100" height="30" as="geometry" />
        </mxCell>
        <mxCell id="0SNg71kg08uve1JwIEZl-33" value="&lt;b&gt;+BARANGAY: ENUM&lt;/b&gt;" style="text;html=1;align=left;verticalAlign=middle;resizable=1;points=[];autosize=1;strokeColor=none;fillColor=none;movable=1;rotatable=1;deletable=1;editable=1;locked=0;connectable=1;" parent="0SNg71kg08uve1JwIEZl-29" vertex="1">
          <mxGeometry x="10" y="92.71000000000004" width="140" height="30" as="geometry" />
        </mxCell>
      </root>
    </mxGraphModel>
  </diagram>
</mxfile>
